<svg width="16" height="18" viewBox="0 0 16 18" fill="none" xmlns="http://www.w3.org/2000/svg">
<path d="M13.2356 17C13.8451 17 14.4071 16.6713 14.7059 16.1401V16.1401C15.0219 15.5784 14.9872 14.8849 14.5194 14.4417C13.5128 13.488 11.3978 12 8 12C4.60834 12 2.59708 13.4827 1.6541 14.4365C1.20946 14.8863 1.19264 15.5647 1.50271 16.1159V16.1159" stroke="#131214" stroke-width="1.5" stroke-linecap="round" stroke-linejoin="round"/>
<path d="M8.11111 8.11111C10.0748 8.11111 11.6667 6.51924 11.6667 4.55556C11.6667 2.59188 10.0748 1 8.11111 1C6.14743 1 4.55556 2.59188 4.55556 4.55556C4.55556 6.51924 6.14743 8.11111 8.11111 8.11111Z" stroke="#131214" stroke-width="1.5" stroke-linecap="round" stroke-linejoin="round"/>
</svg>
