<svg width="24" height="22" viewBox="0 0 24 22" fill="none" xmlns="http://www.w3.org/2000/svg">
<path d="M7.61266 15.9508C3.00846 11.7372 1.79865 7.37318 1.54853 4.6425C1.39602 2.9775 2.70583 1.70075 4.35777 1.44276L6.26096 1.14554C8.13466 0.852915 9.90214 2.10106 10.2531 3.96471L10.557 5.57813C10.6951 6.31137 10.2891 7.03845 9.59236 7.30548C8.79618 7.61065 8.40612 8.50197 8.81274 9.25142C9.29938 10.1483 10.0473 11.3108 11.0333 12.2131C12.0193 13.1154 13.2433 13.7577 14.1797 14.1631C14.9622 14.5019 15.8155 14.0345 16.0491 13.2145C16.2535 12.4969 16.9418 12.0282 17.6844 12.1009L19.3183 12.2609C21.2057 12.4458 22.6053 14.096 22.4794 15.9882L22.3516 17.9102C22.2407 19.5785 21.0848 20.9961 19.4128 20.9914C16.6707 20.9837 12.2169 20.1644 7.61266 15.9508Z" stroke="white" stroke-width="1.5"/>
</svg>
