<svg width="17" height="18" viewBox="0 0 17 18" fill="none" xmlns="http://www.w3.org/2000/svg">
<path d="M4.20002 8.2V5C4.20002 3.93913 4.62145 2.92172 5.37159 2.17157C6.12174 1.42143 7.13915 1 8.20002 1C9.26088 1 10.2783 1.42143 11.0284 2.17157C11.7786 2.92172 12.2 3.93913 12.2 5V8.2M4.00001 17H12.4C14.0569 17 15.4 15.6569 15.4 14V11.2C15.4 9.54315 14.0569 8.2 12.4 8.2H4.00002C2.34317 8.2 1.00002 9.54314 1.00002 11.2L1.00001 14C1 15.6568 2.34315 17 4.00001 17Z" stroke="#131214" stroke-width="1.5" stroke-linecap="round" stroke-linejoin="round"/>
</svg>
