<svg width="18" height="18" viewBox="0 0 18 18" fill="none" xmlns="http://www.w3.org/2000/svg">
<path d="M6.33333 14.3334L5.57236 5.53986C5.43741 3.98044 6.52405 2.57935 8.06799 2.32203L12.7979 1.53372C14.524 1.24602 16.129 2.49079 16.2799 4.23425L17 12.5556M6.33333 14.3334C6.33333 15.8061 5.13943 17 3.66667 17C2.19391 17 1 15.8061 1 14.3334C1 12.8606 2.19391 11.6667 3.66667 11.6667C5.13943 11.6667 6.33333 12.8606 6.33333 14.3334ZM17 12.5556C17 14.0283 15.8061 15.2222 14.3333 15.2222C12.8606 15.2222 11.6667 14.0283 11.6667 12.5556C11.6667 11.0828 12.8606 9.88892 14.3333 9.88892C15.8061 9.88892 17 11.0828 17 12.5556Z" stroke="#131214" stroke-width="1.5" stroke-linecap="round" stroke-linejoin="round"/>
</svg>
