<svg width="18" height="18" viewBox="0 0 18 18" fill="none" xmlns="http://www.w3.org/2000/svg">
<path d="M10.3753 16.2027C10.2346 16.4452 10.0327 16.6465 9.78976 16.7864C9.54683 16.9264 9.27139 17 8.99104 17C8.71069 17 8.43525 16.9264 8.19232 16.7864C7.94938 16.6465 7.74747 16.4452 7.60679 16.2027M13.7898 5.80085C13.7898 4.52759 13.2861 3.30647 12.3858 2.40614C11.4854 1.5058 10.2643 1 8.99104 1C7.71777 1 6.49666 1.5058 5.59632 2.40614C4.69599 3.30647 4.19019 4.52759 4.19019 5.80085C4.19019 10 0.45013 10.7138 1.78976 12.5C3.12939 14.2862 14.7898 14.5 16.2898 12.5C17.5948 10.76 13.7898 10 13.7898 5.80085Z" stroke="#131214" stroke-width="1.5" stroke-linecap="round" stroke-linejoin="round"/>
</svg>
