<svg width="18" height="14" viewBox="0 0 18 14" fill="none" xmlns="http://www.w3.org/2000/svg">
<path d="M10.7743 8.93675C10.3601 8.93675 10.0243 9.27254 10.0243 9.68675C10.0243 10.101 10.3601 10.4368 10.7743 10.4368V8.93675ZM13.2665 10.4368C13.6807 10.4368 14.0165 10.101 14.0165 9.68675C14.0165 9.27254 13.6807 8.93675 13.2665 8.93675V10.4368ZM1.00001 9.99999L1.75001 10V10L1.00001 9.99999ZM1.00001 4L1.75001 4V4H1.00001ZM1 5.75H17V4.25H1V5.75ZM10.7743 10.4368H13.2665V8.93675H10.7743V10.4368ZM0.250006 9.99999C0.250002 12.0711 1.92893 13.75 4 13.75V12.25C2.75736 12.25 1.75 11.2426 1.75001 10L0.250006 9.99999ZM16.25 10C16.25 11.2426 15.2427 12.25 14 12.25V13.75C16.0711 13.75 17.75 12.0711 17.75 10H16.25ZM17.75 4C17.75 1.92893 16.0711 0.25 14 0.25V1.75C15.2427 1.75 16.25 2.75736 16.25 4H17.75ZM1.75001 4C1.75001 2.75736 2.75737 1.75 4.00001 1.75V0.25C1.92894 0.25 0.250012 1.92893 0.250012 4H1.75001ZM16.25 4V10H17.75V4H16.25ZM1.75001 10L1.75001 4L0.250012 4L0.250006 9.99999L1.75001 10ZM4.00001 1.75H14V0.25H4.00001V1.75ZM14 12.25H4V13.75H14V12.25Z" fill="#131214"/>
</svg>
