<svg width="16" height="18" viewBox="0 0 16 18" fill="none" xmlns="http://www.w3.org/2000/svg">
<path d="M14.7292 7.81481C14.7292 11.4197 11.577 14.6744 9.56028 16.3877C8.59932 17.2041 7.22952 17.2041 6.26856 16.3877C4.25185 14.6743 1.09961 11.4197 1.09961 7.81481C1.09961 6.00741 1.8176 4.27404 3.09562 2.99601C4.37365 1.71799 6.10702 1 7.91442 1C9.72182 1 11.4552 1.71799 12.7332 2.99601C14.0112 4.27404 14.7292 6.00741 14.7292 7.81481Z" stroke="#131214" stroke-width="1.5" stroke-linecap="round" stroke-linejoin="round"/>
<path d="M7.91442 10.0864C9.16899 10.0864 10.186 9.06938 10.186 7.81481C10.186 6.56024 9.16899 5.54321 7.91442 5.54321C6.65985 5.54321 5.64282 6.56024 5.64282 7.81481C5.64282 9.06938 6.65985 10.0864 7.91442 10.0864Z" stroke="#131214" stroke-width="1.5" stroke-linecap="round" stroke-linejoin="round"/>
</svg>
