<svg width="14" height="12" viewBox="0 0 14 12" fill="none" xmlns="http://www.w3.org/2000/svg">
<path d="M6.69502 1.05632C6.81982 0.803493 7.18034 0.803493 7.30514 1.05632L8.61053 3.7009C8.70956 3.90152 8.90088 4.04063 9.12225 4.07299L12.042 4.49976C12.321 4.54053 12.4322 4.8834 12.2302 5.08009L10.1183 7.13712C9.95779 7.29343 9.88453 7.51873 9.9224 7.73954L10.4208 10.6452C10.4684 10.9231 10.1767 11.135 9.92711 11.0038L7.31677 9.63105C7.11852 9.52679 6.88165 9.52679 6.68339 9.63105L4.07306 11.0038C3.82348 11.135 3.53174 10.9231 3.57941 10.6452L4.07776 7.73954C4.11563 7.51873 4.04238 7.29343 3.88189 7.13712L1.76995 5.08009C1.56801 4.8834 1.67918 4.54053 1.95812 4.49976L4.87791 4.07299C5.09929 4.04063 5.2906 3.90152 5.38963 3.7009L6.69502 1.05632Z" fill="#FFB323" stroke="#FFB323" stroke-width="1.5" stroke-linecap="round" stroke-linejoin="round"/>
</svg>
