<svg width="18" height="18" viewBox="0 0 18 18" fill="none" xmlns="http://www.w3.org/2000/svg">
<path d="M8.54241 1.58448C8.72961 1.20524 9.27039 1.20524 9.45759 1.58448L11.4157 5.55135C11.5642 5.85227 11.8512 6.06094 12.1833 6.10948L16.5629 6.74964C16.9814 6.81079 17.1481 7.32509 16.8452 7.62013L13.6773 10.7057C13.4366 10.9401 13.3267 11.2781 13.3835 11.6093L14.131 15.9678C14.2025 16.3847 13.7649 16.7026 13.3905 16.5057L9.47504 14.4466C9.17765 14.2902 8.82235 14.2902 8.52496 14.4466L4.60946 16.5057C4.23509 16.7026 3.79749 16.3847 3.86899 15.9678L4.61652 11.6093C4.67332 11.2781 4.56344 10.9401 4.32271 10.7057L1.1548 7.62013C0.851892 7.32509 1.01865 6.81079 1.43705 6.74964L5.81675 6.10948C6.14881 6.06094 6.43578 5.85227 6.58432 5.55135L8.54241 1.58448Z" stroke="#131214" stroke-width="1.5" stroke-linecap="round" stroke-linejoin="round"/>
</svg>
