<svg width="15" height="22" viewBox="0 0 15 22" fill="none" xmlns="http://www.w3.org/2000/svg">
<path d="M13.4171 9.24989L13.0459 10.9998C13.0459 10.9998 12.6756 13.8304 11.3063 15.1996C10.1925 16.3135 8.68176 16.9392 7.10654 16.9392M7.10654 16.9392C5.53131 16.9392 4.0206 16.3135 2.90675 15.1996C1.25242 13.5453 1.05048 9.30287 1.05048 9.30287M7.10654 16.9392V20.3332M3.7126 20.3332H10.5005M7.2232 1.6665C5.36714 1.6665 4.20048 2.83317 4.20048 4.21196C4.20048 4.21196 4.20048 8.08317 4.67775 10.9998C4.80061 11.7507 4.94593 12.3224 5.4233 12.7997C5.90066 13.2771 6.54811 13.5453 7.2232 13.5453C7.8983 13.5453 8.54575 13.2771 9.02311 12.7997C9.50048 12.3224 9.76866 10.9998 9.76866 10.9998C10.3059 7.49984 10.3059 4.21196 10.3059 4.21196C10.3059 3.27252 9.45048 1.6665 7.2232 1.6665Z" stroke="white" stroke-width="2" stroke-linecap="round" stroke-linejoin="round"/>
</svg>
