<svg width="9" height="12" viewBox="0 0 9 12" fill="none" xmlns="http://www.w3.org/2000/svg">
<path d="M7.66695 5.00011L7.45483 6.00008C7.45483 6.00008 7.2432 7.61752 6.46076 8.39996C5.82428 9.03645 4.96102 9.39402 4.06089 9.39402M4.06089 9.39402C3.16076 9.39402 2.2975 9.03645 1.66101 8.39996C0.715677 7.45463 0.600281 5.03038 0.600281 5.03038M4.06089 9.39402V11.3334M2.12149 11.3334H6.00028M4.12755 0.666748C3.06695 0.666748 2.40028 1.33341 2.40028 2.12129C2.40028 2.12129 2.40028 4.33341 2.67301 6.00008C2.74322 6.42913 2.82625 6.75582 3.09903 7.0286C3.37181 7.30138 3.74178 7.45463 4.12755 7.45463C4.51332 7.45463 4.88329 7.30138 5.15607 7.0286C5.42885 6.75582 5.5821 6.00008 5.5821 6.00008C5.88909 4.00008 5.88909 2.12129 5.88909 2.12129C5.88909 1.58447 5.40028 0.666748 4.12755 0.666748Z" stroke="#131214" stroke-linecap="round" stroke-linejoin="round"/>
</svg>
